<?xml version="1.0" encoding="UTF-8" standalone="no"?>
<!-- Generator: Adobe Illustrator 16.0.0, SVG Export Plug-In . SVG Version: 6.00 Build 0)  -->

<svg
   xmlns:dc="http://purl.org/dc/elements/1.1/"
   xmlns:cc="http://creativecommons.org/ns#"
   xmlns:rdf="http://www.w3.org/1999/02/22-rdf-syntax-ns#"
   xmlns:svg="http://www.w3.org/2000/svg"
   xmlns="http://www.w3.org/2000/svg"
   xmlns:sodipodi="http://sodipodi.sourceforge.net/DTD/sodipodi-0.dtd"
   xmlns:inkscape="http://www.inkscape.org/namespaces/inkscape"
   version="1.1"
   id="Layer_1"
   x="0px"
   y="0px"
   width="280"
   height="80"
   viewBox="0 0 280 80"
   enable-background="new 0 0 960 560"
   xml:space="preserve"
   inkscape:version="0.91 r13725"
   sodipodi:docname="semperti.svg"><metadata
     id="metadata15"><rdf:RDF><cc:Work
         rdf:about=""><dc:format>image/svg+xml</dc:format><dc:type
           rdf:resource="http://purl.org/dc/dcmitype/StillImage" /><dc:title></dc:title></cc:Work></rdf:RDF></metadata><defs
     id="defs13" /><sodipodi:namedview
     pagecolor="#ffffff"
     bordercolor="#666666"
     borderopacity="1"
     objecttolerance="10"
     gridtolerance="10"
     guidetolerance="10"
     inkscape:pageopacity="0"
     inkscape:pageshadow="2"
     inkscape:window-width="1598"
     inkscape:window-height="883"
     id="namedview11"
     showgrid="false"
     inkscape:zoom="2.138998"
     inkscape:cx="221.74986"
     inkscape:cy="-9.1514469"
     inkscape:window-x="2048"
     inkscape:window-y="15"
     inkscape:window-maximized="0"
     inkscape:current-layer="g3" /><g
     id="g3"
     transform="translate(0,-480)"><path
       d="m 64.982179,495.43685 c -0.36937,0.63961 -0.79176,1.15047 -1.26957,1.53431 -0.47679,0.38417 -0.9608,0.67059 -1.45376,0.86027 -0.49537,0.19415 -0.95356,0.32221 -1.3725,0.38383 -0.42102,0.0651 -0.75769,0.0971 -1.01347,0.0971 -1.02275,0 -1.46476,-0.53048 -1.32913,-1.59696 0.1315,-1.05993 0.22961,-2.22383 0.28435,-3.48033 0.0554,-1.25581 -0.26645,-2.4166 -0.95701,-3.48308 -0.69847,-1.05993 -2.42039,-1.5942 -5.16438,-1.5942 -1.66202,0 -3.33436,0.35319 -5.01532,1.05442 -1.68336,0.70192 -3.27102,1.59627 -4.75748,2.68168 -1.49024,1.08541 -2.82075,2.28304 -3.99222,3.59255 -1.17147,1.31055 -2.124,2.60457 -2.86,3.87966 -1.18179,2.04619 -1.89541,3.91511 -2.1357,5.60467 -0.24407,1.69334 -0.12806,3.2903 0.34735,4.78915 0.47299,1.50366 1.2231,2.96981 2.24586,4.40669 1.02241,1.43861 2.15704,2.95742 3.41044,4.5499 1.07543,1.34153 2.08717,2.71679 3.03212,4.12028 0.94427,1.40556 1.64102,2.90923 2.09681,4.50343 0.45027,1.59558 0.5649,3.30511 0.34527,5.12651 -0.22307,1.81831 -0.93979,3.78292 -2.1567,5.89005 -1.36528,2.36428 -3.14296,4.30996 -5.33857,5.84496 -2.19388,1.53155 -4.54886,2.76292 -7.06358,3.68928 -2.513,0.92327 -5.068679,1.56322 -7.667393,1.91504 -2.596304,0.34941 -5.016354,0.5267 -7.248789,0.5267 -2.239665,0 -4.489658,-0.19071 -6.7609934,-0.57283 -2.266172,-0.38452 -4.190163,-1.03962 -5.763024,-1.96599 -1.570795,-0.92533 -2.63210497,-2.10816 -3.17394797,-3.54504 -0.542532,-1.43826 -0.204827,-3.20872 1.01139397,-5.31791 1.105719,-1.91436 2.6235,-3.41355 4.561261,-4.50274 1.936728,-1.08576 4.2982564,-1.88062 7.0835514,-2.39458 -0.348721,0.38246 -1.000379,1.04169 -1.948088,1.96496 -0.949431,0.92533 -1.8871574,2.18734 -2.8093924,3.78498 -1.031706,1.78698 -1.285071,3.22387 -0.763194,4.30996 0.523943,1.08472 1.417605,1.91436 2.6806444,2.49166 1.265104,0.57282 2.698889,0.94117 4.298257,1.10055 1.601088,0.15835 2.941927,0.24029 4.030433,0.24029 0.701573,0 1.748081,-0.12841 3.143655,-0.38349 1.391787,-0.25647 2.84003,-0.63686 4.348172,-1.14703 1.509174,-0.51155 2.942964,-1.19763 4.301694,-2.0555 1.35771,-0.86164 2.38907,-1.89576 3.08996,-3.10992 0.55251,-0.95631 0.82722,-1.96013 0.82825,-3.01146 -10e-4,-1.05167 -0.1883,-2.13742 -0.56697,-3.25313 -0.37488,-1.11604 -0.9033,-2.24792 -1.58181,-3.39633 -0.67817,-1.14737 -1.45375,-2.29543 -2.32297,-3.4459 -1.24204,-1.72157 -2.432101,-3.47413 -3.572589,-5.25767 -1.14152,-1.78698 -2.020724,-3.63558 -2.639334,-5.55097 -0.62102,-1.91125 -0.876795,-3.90478 -0.766981,-5.97508 0.112569,-2.07339 0.83101,-4.2566 2.157735,-6.55513 2.02279,-3.5058 4.399119,-6.48697 7.126579,-8.94145 2.72368,-2.45413 5.56956,-4.44972 8.52801,-5.97818 2.95776,-1.5312 5.88867,-2.64759 8.78206,-3.34917 2.89683,-0.70191 5.52584,-1.05442 7.88978,-1.05442 1.78698,0 3.57017,0.14665 5.35406,0.43375 1.78388,0.28813 3.33127,0.70295 4.64594,1.2441 1.31743,0.54288 2.25344,1.24514 2.80836,2.1092 0.55734,0.86027 0.50294,1.86719 -0.16214,3.01766 -0.51602,0.89573 -1.30917,1.74085 -2.37564,2.5395 -1.06854,0.79797 -1.87683,1.67442 -2.42935,2.63142"
       id="path5"
       inkscape:connector-curvature="0"
       style="fill:#f5821f" /><path
       d="m 275.32824,491.52036 c -2.60767,0 -4.59638,2.06686 -4.59638,4.67108 0,2.60388 1.98837,4.5974 4.59638,4.5974 2.60456,0 4.67176,-1.99352 4.67176,-4.5974 3.5e-4,-2.60422 -2.06685,-4.67108 -4.67176,-4.67108"
       id="path7"
       inkscape:connector-curvature="0"
       style="fill:#f5821f" /><path
       d="m 273.56604,526.44723 -0.53633,0.61413 c -5.74685,6.66426 -11.33947,11.95016 -14.85973,11.95016 -1.76254,0 -2.76016,-1.22483 -0.92017,-4.36607 l 17.07977,-29.79691 -7.96482,0 -12.47686,21.60832 c -0.005,-0.002 -0.0131,-0.007 -0.0186,-0.01 l -0.53633,0.61413 c -5.74684,6.66426 -11.33878,11.95016 -14.85869,11.95016 -1.76323,0 -2.76189,-1.22483 -0.92121,-4.36607 l 17.07977,-29.79691 6.51279,0 2.2975,-3.82974 -6.59024,0 7.51007,-13.02214 -7.96792,0 -7.50594,13.02214 -7.20198,0 -2.29784,3.82974 7.27943,0 -12.4803,21.61177 c -0.008,-0.003 -0.0172,-0.009 -0.0255,-0.0131 l -0.53324,0.61413 c -5.74788,6.66426 -11.33946,11.95016 -14.8642,11.95016 -1.76116,0 -2.75569,-1.22483 -0.91569,-4.36607 l 7.96482,-13.94197 c 2.75672,-4.82495 1.45616,-7.65948 -1.14841,-10.80003 l -4.44318,-5.36404 c -1.14841,-1.45307 -1.14841,-3.06242 0.46094,-4.59294 l -4.13818,-4.51926 c -4.51788,4.05729 -4.90241,8.5793 -2.0672,12.25585 l 0.68953,0.91673 c -3.52474,4.98055 -8.27396,11.71986 -13.48205,17.84744 0.003,0.004 0.007,0.009 0.01,0.0131 -0.008,-0.003 -0.0162,-0.009 -0.0248,-0.0131 l -0.53668,0.61413 c -5.74478,6.66426 -13.09753,11.95016 -18.69015,11.95016 -4.90207,0 -7.81473,-3.06448 -4.1375,-9.49775 l 0.76698,-1.37871 c 5.12927,2.14466 14.78124,1.14738 20.75735,-9.19412 l 1.15047,-1.98837 c 4.28828,-7.35378 0.15285,-12.86998 -6.35857,-12.86998 -6.43395,0 -11.56597,3.37051 -14.93855,9.19275 l -7.68254,13.1829 -0.52876,0.60346 c -4.44319,5.20914 -9.72909,9.49948 -14.55266,11.18422 1.29918,-2.06823 2.29784,-4.29172 3.29202,-5.97508 l 8.81064,-15.09072 c 7.42814,-12.63968 -4.59672,-16.8505 -12.71611,-9.57451 l 1.60729,-2.75638 -7.96379,0 -12.46515,21.62554 c -0.0179,-0.008 -0.0358,-0.0193 -0.0527,-0.0269 l -0.53668,0.61414 c -5.74478,6.66426 -11.33568,11.95016 -14.85973,11.95016 -1.76151,0 -2.75638,-1.22483 -0.91982,-4.36608 l 11.48921,-20.14528 c 3.44797,-6.05219 0.15491,-10.41791 -4.28862,-10.41791 -4.29103,0 -8.9621,2.90819 -14.24903,9.65162 2.76085,-5.59159 -0.45785,-9.65162 -4.67108,-9.65162 -4.13543,0 -8.65675,2.68098 -13.712011,9.04024 l 4.749911,-8.27395 -7.965161,0 -12.48822,21.60488 c -0.005,-10e-4 -0.009,-0.004 -0.0134,-0.007 l -0.53702,0.61413 c -5.7434,6.66426 -13.09719,11.95016 -18.68912,11.95016 -4.90275,0 -7.81473,-3.06448 -4.13818,-9.49775 l 0.76801,-1.3787 c 5.12892,2.14465 14.78158,1.14737 20.75666,-9.19413 l 1.15047,-1.98836 c 4.28759,-7.35379 0.15216,-12.86998 -6.35925,-12.86998 -6.43293,0 -11.56633,3.37051 -14.93753,9.19274 l -8.34865,14.32374 c -4.98056,8.50115 -0.68953,16.31623 8.73145,16.31623 5.05732,0 10.09054,-2.20834 14.69759,-5.49382 l -2.73056,4.72581 8.04228,0 9.26848,-16.08559 C 102.42648,506.37954 109.39712,508.0636 105.64209,514.57501 l -16.465641,28.57174 8.11801,0 8.962111,-15.62671 c 15.01326,-21.21795 22.1388,-19.53115 18.30631,-12.94503 l -10.3408,18.00028 c -3.36776,5.90107 -0.99556,11.33947 5.43874,11.33947 3.28032,0 6.80781,-1.74843 10.3353,-4.44904 L 118.16059,560 l 8.04228,0 23.82355,-41.44206 c 8.88671,-12.1006 14.47865,-7.65982 12.40835,-4.05832 l -12.02589,20.8348 c -1.30022,2.29888 -4.28724,2.98806 -5.74478,0 l -4.51789,2.14259 c 0,0 1.45238,6.4374 8.73181,6.4374 l 0.45888,0 c 8.3576,-0.16696 14.63114,-3.82113 19.92909,-8.69083 0.31671,5.0315 4.35815,8.69083 10.80416,8.69083 9.03646,0 17.9996,-7.04843 24.58984,-14.70722 -0.004,-0.007 -0.008,-0.0117 -0.0107,-0.0182 0.009,0.006 0.0176,0.0117 0.0258,0.0182 3.82939,-4.44422 6.81676,-8.42714 13.17602,-17.08321 l 1.07267,1.30331 c 0.99556,1.30057 1.37802,2.90992 0.45785,4.51823 l -8.4268,14.62943 c -3.37052,5.90106 -0.99453,11.33946 5.43977,11.33946 4.02872,0 8.43438,-2.6414 12.75398,-6.44394 -0.12497,3.69893 2.38252,6.44394 6.94791,6.44394 4.02872,0 8.4299,-2.6383 12.74847,-6.43843 -0.1229,3.69583 2.38597,6.43843 6.94895,6.43843 6.58612,0 14.1702,-7.04843 20.75735,-14.70722 -0.53324,-1.07302 -1.91504,-2.29853 -2.98496,-2.76085 m -87.06353,-11.18195 c 4.5974,-7.88977 12.71714,-6.58577 7.96792,1.68784 l -1.15047,1.98837 c -3.8294,6.5121 -8.96004,6.35925 -11.94706,5.28624 l 5.12961,-8.96245 z m -121.703721,0 c 4.59637,-7.88977 12.71645,-6.58577 7.96826,1.68784 l -1.1515,1.98837 c -3.83009,6.5121 -8.95901,6.35925 -11.94706,5.28624 l 5.1303,-8.96245 z"
       id="path9"
       inkscape:connector-curvature="0"
       style="fill:#f5821f" /></g></svg>